<?xml version="1.0" standalone="no"?><!DOCTYPE svg PUBLIC "-//W3C//DTD SVG 1.1//EN" "http://www.w3.org/Graphics/SVG/1.1/DTD/svg11.dtd"><svg t="1694675368500" class="icon" viewBox="0 0 1024 1024" version="1.1" xmlns="http://www.w3.org/2000/svg" p-id="7075" width="48" height="48" xmlns:xlink="http://www.w3.org/1999/xlink"><path d="M901.957085 349.126786c-60.072164-87.975001-153.76426-100.09183-187.170868-101.49977-79.698013-8.106329-155.59885 46.931378-196.0025 46.931377-40.40365 0-102.779718-45.822091-168.86763-44.627473-86.908379 1.279947-166.990375 50.515229-211.788509 128.421315-90.32157 156.665472-23.12437 388.762468 64.850631 515.818508 43.048873 62.248073 94.332069 132.133161 161.6146 129.615933 64.850631-2.559893 89.425607-41.982251 167.673013-41.982251 78.418066 0 100.433149 41.982251 169.03829 40.702304 69.799758-1.279947 114.000583-63.400025 156.665473-125.818758 49.405941-72.188992 69.714429-141.98875 70.909045-145.572601-1.578601-0.725303-135.973001-52.221824-137.380942-207.095371-1.279947-129.573268 105.68093-191.778676 110.502062-194.893213zM715.852839 0.042665c-51.496521 2.133244-113.829924 34.302571-150.820382 77.479438-33.107954 38.3984-58.706887 99.622516-50.899213 158.414733 57.51227 4.479813 112.720637-29.182784 148.473814-72.530311 35.710512-43.176868 59.816174-103.377026 53.245781-163.36386z" fill="#2c2c2c" opacity=".65" p-id="7076"></path></svg>