<?xml version="1.0" standalone="no"?><!DOCTYPE svg PUBLIC "-//W3C//DTD SVG 1.1//EN" "http://www.w3.org/Graphics/SVG/1.1/DTD/svg11.dtd"><svg t="1695279023990" class="icon" viewBox="0 0 1024 1024" version="1.1" xmlns="http://www.w3.org/2000/svg" p-id="4014" width="13" height="13" xmlns:xlink="http://www.w3.org/1999/xlink"><path d="M305.28 451.2A21.76 21.76 0 0 0 320 426.24a186.88 186.88 0 0 1 0-72.96A195.84 195.84 0 0 1 541.44 192a192 192 0 0 1 70.4 25.6 21.12 21.12 0 0 0 28.16-9.6 20.48 20.48 0 0 0-6.4-28.8 237.44 237.44 0 0 0-356.48 167.68 240.64 240.64 0 0 0 0 88.32 21.76 21.76 0 0 0 21.12 16.64z m0 0" fill="#323333" p-id="4015"></path><path d="M890.88 608a103.04 103.04 0 0 0-31.36-74.88 378.88 378.88 0 1 0-571.52 154.88 74.24 74.24 0 0 0 0 11.52 128 128 0 0 0 14.72 32.64c33.92 51.2 72.32 110.08 110.72 167.04a245.12 245.12 0 0 0 166.4 107.52h131.2A210.56 210.56 0 0 0 885.76 832a312.32 312.32 0 0 0 4.48-54.4V608zM196.48 384a315.52 315.52 0 0 1 631.04 0 320 320 0 0 1-25.6 124.16h-8.96A119.04 119.04 0 0 0 768 512a100.48 100.48 0 0 0-34.56-21.12h-7.04a205.44 205.44 0 0 0 21.76-67.84 233.6 233.6 0 0 0-26.24-151.04 21.12 21.12 0 0 0-28.8-8.32 20.48 20.48 0 0 0-8.32 28.16 192 192 0 0 1 21.76 128 183.04 183.04 0 0 1-27.52 73.6h-3.84a128 128 0 0 0-30.72-19.2 69.76 69.76 0 0 0-30.08-7.68V387.84a97.28 97.28 0 0 0-88.32-99.2L512 287.36a98.56 98.56 0 0 0-97.28 88.96 151.04 151.04 0 0 0 0 16v160A188.16 188.16 0 0 1 362.24 512a21.12 21.12 0 0 0-32.64 26.88 212.48 212.48 0 0 0 34.56 33.28 103.68 103.68 0 0 0-64 45.44v3.2A313.6 313.6 0 0 1 196.48 384z m631.04 395.52a244.48 244.48 0 0 1-3.84 43.52 147.2 147.2 0 0 1-119.68 121.6l-30.08 5.12h-46.08l-33.92-5.12a183.04 183.04 0 0 1-128-80L357.76 697.6a64 64 0 0 1-6.4-15.36 40.96 40.96 0 0 1 32.64-52.48h9.6a42.88 42.88 0 0 1 35.2 18.56c15.36 19.84 30.08 40.32 44.8 60.16l5.12 6.4V384A35.84 35.84 0 0 1 512 350.72h4.48a34.56 34.56 0 0 1 31.36 36.48v206.72a37.76 37.76 0 0 0 0 8.96 10.88 10.88 0 0 0 9.6 7.68 9.6 9.6 0 0 0 9.6-7.04 19.2 19.2 0 0 0 0-8.32v-33.28a35.2 35.2 0 0 1 15.36-30.72l12.8-6.4h19.2a35.84 35.84 0 0 1 25.6 38.4v37.12a11.52 11.52 0 0 0 11.52 10.24c5.76 0 9.6-5.12 10.24-12.8v-13.44a37.76 37.76 0 0 1 7.04-23.04 35.2 35.2 0 0 1 28.16-13.44h11.52a35.84 35.84 0 0 1 23.68 35.84v31.36a26.24 26.24 0 0 0 0 7.04c0 5.76 3.84 8.32 9.6 9.6a11.52 11.52 0 0 0 10.24-7.04 20.48 20.48 0 0 0 0-8.96v-6.4a46.08 46.08 0 0 1 3.84-18.56 33.28 33.28 0 0 1 31.36-20.48h7.04a34.56 34.56 0 0 1 27.52 36.48v170.88z m0 0" fill="#323333" p-id="4016"></path></svg>